<?xml version="1.0" encoding="UTF-8"?>
<!DOCTYPE svg PUBLIC "-//W3C//DTD SVG 1.1//EN" "http://www.w3.org/Graphics/SVG/1.1/DTD/svg11.dtd">
<svg xmlns="http://www.w3.org/2000/svg" version="1.1" width="600px" height="227px" style="shape-rendering:geometricPrecision; text-rendering:geometricPrecision; image-rendering:optimizeQuality; fill-rule:evenodd; clip-rule:evenodd" xmlns:xlink="http://www.w3.org/1999/xlink">
<g><path style="opacity:0.004" fill="#87a28a" d="M 85.5,-0.5 C 86.5,-0.5 87.5,-0.5 88.5,-0.5C 88.5,-0.166667 88.5,0.166667 88.5,0.5C 87.209,0.737305 86.209,0.403972 85.5,-0.5 Z"/></g>
<g><path style="opacity:0.996" fill="#fbfcfd" d="M 93.5,-0.5 C 105.833,-0.5 118.167,-0.5 130.5,-0.5C 131.919,0.451145 133.585,0.784479 135.5,0.5C 136.568,1.43448 137.901,1.76781 139.5,1.5C 142.619,2.86993 145.952,3.86993 149.5,4.5C 150.209,5.40397 151.209,5.73731 152.5,5.5C 154.649,6.73623 156.982,7.73623 159.5,8.5C 161.181,10.0075 163.181,11.0075 165.5,11.5C 165.842,12.3382 166.508,12.6716 167.5,12.5C 168.899,13.8897 170.566,14.8897 172.5,15.5C 174.531,17.5224 176.865,19.1891 179.5,20.5C 180.795,21.4884 182.128,22.4884 183.5,23.5C 187.141,26.8049 190.808,30.1383 194.5,33.5C 196.592,36.681 198.925,39.681 201.5,42.5C 201.328,43.4916 201.662,44.1583 202.5,44.5C 227.075,79.4 231.241,116.733 215,156.5C 210.964,165.249 206.464,173.583 201.5,181.5C 200.599,182.29 199.932,183.29 199.5,184.5C 198.833,184.5 198.5,184.833 198.5,185.5C 197.833,185.5 197.5,185.833 197.5,186.5C 196.833,186.5 196.5,186.833 196.5,187.5C 193.473,189.86 190.806,192.527 188.5,195.5C 187.833,195.5 187.5,195.833 187.5,196.5C 186.833,196.5 186.5,196.833 186.5,197.5C 185.833,197.5 185.5,197.833 185.5,198.5C 181.618,200.934 177.952,203.601 174.5,206.5C 173.833,206.5 173.5,206.833 173.5,207.5C 170.669,208.079 168.336,209.412 166.5,211.5C 164.847,211.66 163.514,212.326 162.5,213.5C 161.508,213.328 160.842,213.662 160.5,214.5C 159.508,214.328 158.842,214.662 158.5,215.5C 156.597,215.796 154.93,216.463 153.5,217.5C 151.447,217.402 149.78,218.069 148.5,219.5C 146.901,219.232 145.568,219.566 144.5,220.5C 143.209,220.263 142.209,220.596 141.5,221.5C 138.784,221.678 136.117,222.178 133.5,223C 136.063,223.763 136.063,224.263 133.5,224.5C 130.673,223.337 128.006,223.337 125.5,224.5C 116.5,224.5 107.5,224.5 98.5,224.5C 95.9935,223.337 93.3269,223.337 90.5,224.5C 87.9365,224.263 87.9365,223.763 90.5,223C 87.8832,222.178 85.2165,221.678 82.5,221.5C 81.791,220.596 80.791,220.263 79.5,220.5C 78.4324,219.566 77.099,219.232 75.5,219.5C 74.2196,218.069 72.5529,217.402 70.5,217.5C 68.4907,215.935 66.1573,214.935 63.5,214.5C 63.1583,213.662 62.4916,213.328 61.5,213.5C 61.1583,212.662 60.4916,212.328 59.5,212.5C 59.1583,211.662 58.4916,211.328 57.5,211.5C 55.6644,209.412 53.3311,208.079 50.5,207.5C 48.1401,205.147 45.4735,203.147 42.5,201.5C 41.0552,199.937 39.3885,198.604 37.5,197.5C 36.5,195.833 35.1667,194.5 33.5,193.5C 31.8333,191.167 29.8333,189.167 27.5,187.5C 26.3272,185.496 24.6605,183.996 22.5,183C 22.8333,182.667 23.1667,182.333 23.5,182C 21.9297,180.603 20.5964,179.103 19.5,177.5C 18.4884,176.128 17.4884,174.795 16.5,173.5C 16.6716,172.508 16.3382,171.842 15.5,171.5C 14.7368,169.632 13.7368,167.965 12.5,166.5C 12.573,164.973 11.9063,163.973 10.5,163.5C 10.6716,162.508 10.3382,161.842 9.5,161.5C 9.73731,160.209 9.40397,159.209 8.5,158.5C 7.73623,155.982 6.73623,153.649 5.5,151.5C 5.67158,150.508 5.33825,149.842 4.5,149.5C 4.52638,146.292 3.52638,144.292 1.5,143.5C 2.42789,142.232 2.59456,140.899 2,139.5C 0.912526,141.932 0.412526,141.598 0.5,138.5C 1.83333,137.5 1.83333,136.5 0.5,135.5C 0.784479,133.585 0.451145,131.919 -0.5,130.5C -0.5,118.167 -0.5,105.833 -0.5,93.5C 0.657188,90.7273 1.32385,87.7273 1.5,84.5C 2.43448,83.4324 2.76781,82.099 2.5,80.5C 3.73838,78.7857 4.40505,76.7857 4.5,74.5C 5.40397,73.791 5.73731,72.791 5.5,71.5C 6.73623,69.351 7.73623,67.0177 8.5,64.5C 10.0075,62.8185 11.0075,60.8185 11.5,58.5C 12.3382,58.1583 12.6716,57.4916 12.5,56.5C 13.3382,56.1583 13.6716,55.4916 13.5,54.5C 16.2411,52.0246 18.2411,49.0246 19.5,45.5C 24.1568,40.2072 28.8235,34.8739 33.5,29.5C 35.5053,28.746 36.172,27.5793 35.5,26C 36.4491,25.3828 37.2825,25.5494 38,26.5C 42.3986,22.5907 46.8986,18.924 51.5,15.5C 53.4341,14.8897 55.1007,13.8897 56.5,12.5C 57.4916,12.6716 58.1583,12.3382 58.5,11.5C 60.8185,11.0075 62.8185,10.0075 64.5,8.5C 67.8856,7.82782 70.2189,6.49449 71.5,4.5C 72.1667,4.83333 72.8333,5.16667 73.5,5.5C 77.2761,4.13344 80.9428,2.8001 84.5,1.5C 86.099,1.76781 87.4324,1.43448 88.5,0.5C 90.4147,0.784479 92.0813,0.451145 93.5,-0.5 Z"/></g>
<g><path style="opacity:0.004" fill="#85a089" d="M 135.5,0.5 C 135.5,0.166667 135.5,-0.166667 135.5,-0.5C 136.5,-0.5 137.5,-0.5 138.5,-0.5C 137.791,0.403972 136.791,0.737305 135.5,0.5 Z"/></g>
<g><path style="opacity:0.008" fill="#a0b5a2" d="M 84.5,1.5 C 83.7611,1.63101 83.0944,1.46434 82.5,1C 83.4368,0.308314 84.1034,0.474981 84.5,1.5 Z"/></g>
<g><path style="opacity:0.004" fill="#a0b5a2" d="M 139.5,1.5 C 139.897,0.474981 140.563,0.308314 141.5,1C 140.906,1.46434 140.239,1.63101 139.5,1.5 Z"/></g>
<g><path style="opacity:0.004" fill="#8da690" d="M 149.5,4.5 C 149.897,3.47498 150.563,3.30831 151.5,4C 150.906,4.46434 150.239,4.63101 149.5,4.5 Z"/></g>
<g><path style="opacity:0.004" fill="#b7c7b8" d="M 152.5,4.5 C 153.833,5.16667 153.833,5.16667 152.5,4.5 Z"/></g>
<g><path style="opacity:0.004" fill="#8ca68f" d="M 64.5,8.5 C 63.8333,7.16667 63.8333,7.16667 64.5,8.5 Z"/></g>
<g><path style="opacity:0.004" fill="#a2b7a4" d="M 159.5,7.5 C 160.833,8.16667 160.833,8.16667 159.5,7.5 Z"/></g>
<g><path style="opacity:0.004" fill="#9fb5a1" d="M 58.5,11.5 C 57.8333,10.1667 57.8333,10.1667 58.5,11.5 Z"/></g>
<g><path style="opacity:0.004" fill="#9fb5a1" d="M 165.5,10.5 C 166.833,11.1667 166.833,11.1667 165.5,10.5 Z"/></g>
<g><path style="opacity:0.004" fill="#94ac97" d="M 56.5,12.5 C 55.8333,11.1667 55.8333,11.1667 56.5,12.5 Z"/></g>
<g><path style="opacity:0.004" fill="#94ac97" d="M 167.5,11.5 C 168.833,12.1667 168.833,12.1667 167.5,11.5 Z"/></g>
<g><path style="opacity:0.004" fill="#9ab19d" d="M 51.5,15.5 C 50.8333,14.1667 50.8333,14.1667 51.5,15.5 Z"/></g>
<g><path style="opacity:0.004" fill="#9ab19d" d="M 172.5,14.5 C 173.833,15.1667 173.833,15.1667 172.5,14.5 Z"/></g>
<g><path style="opacity:0.004" fill="#89a48c" d="M 179.5,19.5 C 180.833,20.1667 180.833,20.1667 179.5,19.5 Z"/></g>
<g><path style="opacity:0.004" fill="#bdcdbf" d="M 183.5,22.5 C 184.833,23.1667 184.833,23.1667 183.5,22.5 Z"/></g>
<g><path style="opacity:1" fill="#0985cb" d="M 95.5,25.5 C 132.085,21.5594 161.585,33.8928 184,62.5C 185.889,65.1116 187.389,67.9449 188.5,71C 160.719,98.9472 132.719,126.781 104.5,154.5C 90.2915,139.458 75.6249,124.958 60.5,111C 57.8333,110.333 55.1667,110.333 52.5,111C 46.7876,114.534 42.7876,119.368 40.5,125.5C 40.577,127.299 41.077,128.966 42,130.5C 61.1667,149.667 80.3333,168.833 99.5,188C 102.833,190 106.167,190 109.5,188C 138.709,158.29 168.376,129.124 198.5,100.5C 201.932,142.476 184.932,172.976 147.5,192C 106.019,207.844 70.8524,199.011 42,165.5C 23.8451,139.273 19.8451,110.94 30,80.5C 43.1101,51.7058 64.9434,33.3725 95.5,25.5 Z"/></g>
<g><path style="opacity:0.004" fill="#93ac96" d="M 33.5,29.5 C 32.8333,28.1667 32.8333,28.1667 33.5,29.5 Z"/></g>
<g><path style="opacity:0.004" fill="#c3d1c5" d="M 194.5,32.5 C 195.833,33.1667 195.833,33.1667 194.5,32.5 Z"/></g>
<g><path style="opacity:0.004" fill="#528472" d="M 202.5,41.5 C 203.833,42.1667 203.833,42.1667 202.5,41.5 Z"/></g>
<g><path style="opacity:0.004" fill="#2b777e" d="M 583.5,43.5 C 583.897,42.475 584.563,42.3083 585.5,43C 584.906,43.4643 584.239,43.631 583.5,43.5 Z"/></g>
<g><path style="opacity:0.351" fill="#247a8a" d="M 201.5,42.5 C 201.833,42.5 202.167,42.5 202.5,42.5C 329.332,43.4996 456.332,43.8329 583.5,43.5C 583.5,43.8333 583.5,44.1667 583.5,44.5C 456.5,44.5 329.5,44.5 202.5,44.5C 201.662,44.1583 201.328,43.4916 201.5,42.5 Z"/></g>
<g><path style="opacity:0.008" fill="#1c7c9a" d="M 586.5,43.5 C 587.833,44.1667 587.833,44.1667 586.5,43.5 Z"/></g>
<g><path style="opacity:0.004" fill="#91aa94" d="M 19.5,45.5 C 18.8333,44.1667 18.8333,44.1667 19.5,45.5 Z"/></g>
<g><path style="opacity:1" fill="#e1eef8" d="M 113.5,44.5 C 119.795,44.9836 121.961,48.3169 120,54.5C 118.334,57.3788 115.834,58.2121 112.5,57C 108.309,52.4598 108.642,48.2931 113.5,44.5 Z"/></g>
<g><path style="opacity:1" fill="#0984cb" d="M 202.5,44.5 C 329.5,44.5 456.5,44.5 583.5,44.5C 584.5,44.5 585.5,44.5 586.5,44.5C 588.463,45.8202 590.463,47.1535 592.5,48.5C 593.983,50.0938 595.483,51.7605 597,53.5C 598.107,52.2881 598.607,52.6214 598.5,54.5C 597.167,54.8333 597.167,55.1667 598.5,55.5C 598.328,56.4916 598.662,57.1583 599.5,57.5C 599.5,94.1667 599.5,130.833 599.5,167.5C 598.662,167.842 598.328,168.508 598.5,169.5C 597.833,169.5 597.5,169.833 597.5,170.5C 596.599,171.29 595.932,172.29 595.5,173.5C 594.833,173.5 594.5,173.833 594.5,174.5C 593.833,174.5 593.5,174.833 593.5,175.5C 592.128,176.512 590.795,177.512 589.5,178.5C 588.833,178.5 588.5,178.833 588.5,179.5C 586.302,179.875 584.302,180.542 582.5,181.5C 455.5,181.5 328.5,181.5 201.5,181.5C 206.464,173.583 210.964,165.249 215,156.5C 231.241,116.733 227.075,79.4 202.5,44.5 Z"/></g>
<g><path style="opacity:1" fill="#eaf3fa" d="M 98.5,46.5 C 101.119,46.2317 103.619,46.565 106,47.5C 106.591,48.4835 106.257,49.1501 105,49.5C 99.4504,48.1857 98.1171,50.1857 101,55.5C 102.011,56.3366 103.178,56.67 104.5,56.5C 104.52,54.857 103.853,53.5237 102.5,52.5C 104.045,51.5481 105.712,51.2148 107.5,51.5C 107.843,57.1778 105.176,59.3445 99.5,58C 96.1881,54.3206 95.8547,50.4873 98.5,46.5 Z"/></g>
<g><path style="opacity:1" fill="#e4f0f8" d="M 123.5,45.5 C 124.833,45.5 126.167,45.5 127.5,45.5C 126.577,54.3192 127.91,55.1526 131.5,48C 132.635,47.2506 133.635,47.4173 134.5,48.5C 132.747,51.0048 131.247,53.6714 130,56.5C 128.89,58.0368 127.39,58.7035 125.5,58.5C 124.725,54.186 124.059,49.8526 123.5,45.5 Z"/></g>
<g><path style="opacity:0.004" fill="#247a8b" d="M 592.5,47.5 C 593.833,48.1667 593.833,48.1667 592.5,47.5 Z"/></g>
<g><path style="opacity:1" fill="#1c87cc" d="M 113.5,47.5 C 114.833,47.5 116.167,47.5 117.5,47.5C 117.663,49.8568 117.497,52.1902 117,54.5C 116,55.8333 115,55.8333 114,54.5C 113.503,52.1902 113.337,49.8568 113.5,47.5 Z"/></g>
<g><path style="opacity:1" fill="#e5f1f9" d="M 140.5,49.5 C 141.496,49.4142 142.329,49.7476 143,50.5C 143.32,53.5399 143.32,56.5399 143,59.5C 145.022,57.4782 147.022,55.4782 149,53.5C 150.059,53.6301 150.892,54.1301 151.5,55C 140.889,67.6254 137.222,65.7921 140.5,49.5 Z"/></g>
<g><path style="opacity:0.004" fill="#7d9b80" d="M 13.5,54.5 C 12.8333,53.1667 12.8333,53.1667 13.5,54.5 Z"/></g>
<g><path style="opacity:1" fill="#e6f1f9" d="M 85.5,50.5 C 87.0481,50.8212 87.7148,51.8212 87.5,53.5C 84.0682,53.2479 83.0682,54.5812 84.5,57.5C 85.5,56.8333 86.5,56.1667 87.5,55.5C 87.8333,55.8333 88.1667,56.1667 88.5,56.5C 86.703,57.6951 85.703,59.3618 85.5,61.5C 87.5988,60.7691 89.5988,60.7691 91.5,61.5C 89.417,62.9587 87.2503,64.2921 85,65.5C 82.9128,62.3272 81.0795,58.9939 79.5,55.5C 81.1619,53.3483 83.1619,51.6817 85.5,50.5 Z"/></g>
<g><path style="opacity:0.004" fill="#377569" d="M 598.5,54.5 C 598.833,54.5 599.167,54.5 599.5,54.5C 599.5,54.8333 599.5,55.1667 599.5,55.5C 599.167,55.1667 598.833,54.8333 598.5,54.5 Z"/></g>
<g><path style="opacity:0.004" fill="#9ab19d" d="M 12.5,56.5 C 11.8333,55.1667 11.8333,55.1667 12.5,56.5 Z"/></g>
<g><path style="opacity:1" fill="#74bae2" d="M 530.5,57.5 C 533.024,56.1997 535.691,56.1997 538.5,57.5C 538.376,58.1067 538.043,58.44 537.5,58.5C 535.393,57.5318 533.059,57.1984 530.5,57.5 Z"/></g>
<g><path style="opacity:0.004" fill="#c5d3c6" d="M 11.5,58.5 C 10.8333,57.1667 10.8333,57.1667 11.5,58.5 Z"/></g>
<g><path style="opacity:1" fill="#e9f3f9" d="M 73.5,57.5 C 74.552,57.3505 75.552,57.5172 76.5,58C 78.6944,60.6947 80.6944,63.528 82.5,66.5C 79.6896,67.7414 77.0229,67.408 74.5,65.5C 74.1667,65.8333 73.8333,66.1667 73.5,66.5C 74.5,67.8333 75.5,69.1667 76.5,70.5C 76.1667,71.5 75.5,72.1667 74.5,72.5C 72.2887,69.2444 69.9554,66.0777 67.5,63C 68.1079,62.1301 68.9412,61.6301 70,61.5C 72.1583,62.451 74.325,62.951 76.5,63C 75.2423,61.2591 74.2423,59.4258 73.5,57.5 Z"/></g>
<g><path style="opacity:1" fill="#eaf3fa" d="M 153.5,57.5 C 154.5,57.5 155.5,57.5 156.5,57.5C 156.336,60.1873 156.503,62.854 157,65.5C 157.941,63.9386 159.108,62.6053 160.5,61.5C 161.308,61.8076 161.975,62.3076 162.5,63C 160.12,66.2576 157.62,69.4242 155,72.5C 153.938,69.971 153.105,67.3043 152.5,64.5C 151.485,67.1677 149.818,67.8344 147.5,66.5C 149.526,63.4822 151.526,60.4822 153.5,57.5 Z"/></g>
<g><path style="opacity:1" fill="#f1f7fc" d="M 288.5,57.5 C 293.034,58.3445 297.534,58.3445 302,57.5C 306.346,58.7192 306.513,60.5526 302.5,63C 299.131,63.6626 295.797,63.4959 292.5,62.5C 290.971,62.5288 289.804,63.1955 289,64.5C 287.513,63.8448 286.347,62.8448 285.5,61.5C 286.524,60.1482 287.524,58.8149 288.5,57.5 Z"/></g>
<g><path style="opacity:1" fill="#f1f7fb" d="M 405.5,63.5 C 401.599,64.1429 398.266,63.1429 395.5,60.5C 392.999,63.5696 389.999,64.2362 386.5,62.5C 389.852,57.6903 394.519,56.1903 400.5,58C 402.373,59.7038 404.04,61.5372 405.5,63.5 Z"/></g>
<g><path style="opacity:1" fill="#f2f7fb" d="M 530.5,57.5 C 533.059,57.1984 535.393,57.5318 537.5,58.5C 535.296,61.1967 532.463,62.8634 529,63.5C 528.167,63.1667 527.333,62.8333 526.5,62.5C 527.887,60.79 529.221,59.1233 530.5,57.5 Z"/></g>
<g><path style="opacity:1" fill="#e5f0f9" d="M 93.5,58.5 C 94.675,58.281 95.675,58.6143 96.5,59.5C 94.9483,60.7979 93.9483,60.4646 93.5,58.5 Z"/></g>
<g><path style="opacity:1" fill="#e6f1f9" d="M 132.5,57.5 C 134.465,57.9483 134.798,58.9483 133.5,60.5C 132.614,59.675 132.281,58.675 132.5,57.5 Z"/></g>
<g><path style="opacity:1" fill="#4397d3" d="M 405.5,63.5 C 403.167,64.1667 400.833,64.8333 398.5,65.5C 396.5,65.5 394.5,65.5 392.5,65.5C 390.302,64.8347 387.969,64.1681 385.5,63.5C 385.624,62.8933 385.957,62.56 386.5,62.5C 389.999,64.2362 392.999,63.5696 395.5,60.5C 398.266,63.1429 401.599,64.1429 405.5,63.5 Z"/></g>
<g><path style="opacity:0.004" fill="#92ab95" d="M 8.5,64.5 C 7.83333,63.1667 7.83333,63.1667 8.5,64.5 Z"/></g>
<g><path style="opacity:1" fill="#9ccdea" d="M 348.5,66.5 C 340.167,66.5 331.833,66.5 323.5,66.5C 323.5,68.1667 323.5,69.8333 323.5,71.5C 326.385,71.1936 329.052,71.5269 331.5,72.5C 328.5,72.5 325.5,72.5 322.5,72.5C 322.5,70.1667 322.5,67.8333 322.5,65.5C 331.349,65.1736 340.016,65.507 348.5,66.5 Z"/></g>
<g><path style="opacity:1" fill="#e8f2f9" d="M 63.5,65.5 C 66.8123,68.1456 69.8123,71.1456 72.5,74.5C 71.635,75.5827 70.635,75.7494 69.5,75C 67.3333,72.8333 65.1667,70.6667 63,68.5C 62.5304,67.4232 62.6971,66.4232 63.5,65.5 Z"/></g>
<g><path style="opacity:1" fill="#5eacdc" d="M 268.5,66.5 C 263.167,66.5 257.833,66.5 252.5,66.5C 252.823,73.0221 252.49,79.3554 251.5,85.5C 251.5,78.8333 251.5,72.1667 251.5,65.5C 257.358,65.1778 263.025,65.5111 268.5,66.5 Z"/></g>
<g><path style="opacity:1" fill="#f9fcfd" d="M 268.5,66.5 C 272.138,66.7377 274.971,68.4044 277,71.5C 277.667,82.1667 277.667,92.8333 277,103.5C 275.833,106.667 273.667,108.833 270.5,110C 264.509,110.499 258.509,110.666 252.5,110.5C 252.5,104.167 252.5,97.8333 252.5,91.5C 251.5,91.5 250.5,91.5 249.5,91.5C 249.025,88.9179 249.692,86.9179 251.5,85.5C 252.49,79.3554 252.823,73.0221 252.5,66.5C 257.833,66.5 263.167,66.5 268.5,66.5 Z"/></g>
<g><path style="opacity:1" fill="#f5fafc" d="M 288.5,109.5 C 285.941,109.802 283.607,109.468 281.5,108.5C 283.674,94.4564 286.174,80.4564 289,66.5C 293.066,65.5363 297.233,65.203 301.5,65.5C 304.165,80.4962 306.831,95.4962 309.5,110.5C 306.833,110.5 304.167,110.5 301.5,110.5C 301.425,107.794 301.092,105.127 300.5,102.5C 296.833,102.5 293.167,102.5 289.5,102.5C 289.326,104.861 288.993,107.194 288.5,109.5 Z"/></g>
<g><path style="opacity:1" fill="#fdfdfe" d="M 348.5,66.5 C 348.5,68.5 348.5,70.5 348.5,72.5C 345.5,72.5 342.5,72.5 339.5,72.5C 339.5,84.8333 339.5,97.1667 339.5,109.5C 337.167,109.5 334.833,109.5 332.5,109.5C 332.829,96.9887 332.495,84.6554 331.5,72.5C 329.052,71.5269 326.385,71.1936 323.5,71.5C 323.5,69.8333 323.5,68.1667 323.5,66.5C 331.833,66.5 340.167,66.5 348.5,66.5 Z"/></g>
<g><path style="opacity:1" fill="#fcfdfe" d="M 360.5,85.5 C 363.5,85.5 366.5,85.5 369.5,85.5C 369.5,79.1667 369.5,72.8333 369.5,66.5C 372.167,66.5 374.833,66.5 377.5,66.5C 377.5,81.1667 377.5,95.8333 377.5,110.5C 374.833,110.5 372.167,110.5 369.5,110.5C 369.5,104.167 369.5,97.8333 369.5,91.5C 366.5,91.5 363.5,91.5 360.5,91.5C 359.51,97.31 359.177,103.31 359.5,109.5C 357.167,109.5 354.833,109.5 352.5,109.5C 352.5,95.1667 352.5,80.8333 352.5,66.5C 354.833,66.5 357.167,66.5 359.5,66.5C 359.177,73.0221 359.51,79.3554 360.5,85.5 Z"/></g>
<g><path style="opacity:1" fill="#f7fafd" d="M 392.5,65.5 C 394.5,65.5 396.5,65.5 398.5,65.5C 402.791,66.2361 405.958,68.5694 408,72.5C 408.667,82.5 408.667,92.5 408,102.5C 405.916,108.655 401.582,111.322 395,110.5C 390.895,111.054 387.562,109.721 385,106.5C 384.667,105.5 384.333,104.5 384,103.5C 383.333,92.8333 383.333,82.1667 384,71.5C 385.851,68.1539 388.684,66.1539 392.5,65.5 Z"/></g>
<g><path style="opacity:1" fill="#fafcfe" d="M 424.5,66.5 C 427.095,74.4518 429.595,82.4518 432,90.5C 432.5,82.5069 432.666,74.5069 432.5,66.5C 434.833,66.5 437.167,66.5 439.5,66.5C 439.5,81.1667 439.5,95.8333 439.5,110.5C 436.753,110.813 434.086,110.48 431.5,109.5C 428.495,100.154 425.495,90.8203 422.5,81.5C 422.631,80.6236 422.298,79.9569 421.5,79.5C 420.501,89.4778 420.168,99.4778 420.5,109.5C 418.5,109.5 416.5,109.5 414.5,109.5C 414.5,95.1667 414.5,80.8333 414.5,66.5C 417.833,66.5 421.167,66.5 424.5,66.5 Z"/></g>
<g><path style="opacity:1" fill="#7fbce2" d="M 432.5,66.5 C 434.948,65.5269 437.615,65.1936 440.5,65.5C 440.829,80.676 440.496,95.676 439.5,110.5C 439.5,95.8333 439.5,81.1667 439.5,66.5C 437.167,66.5 434.833,66.5 432.5,66.5 Z"/></g>
<g><path style="opacity:1" fill="#f8fbfd" d="M 469.5,80.5 C 467.167,80.5 464.833,80.5 462.5,80.5C 462.795,78.2646 462.461,76.2646 461.5,74.5C 460.688,73.0069 459.355,72.3402 457.5,72.5C 456.228,72.5698 455.062,72.9032 454,73.5C 453.333,83.1667 453.333,92.8333 454,102.5C 455.808,104.396 457.975,104.896 460.5,104C 461.252,103.329 461.586,102.496 461.5,101.5C 462.479,98.3752 462.813,95.0419 462.5,91.5C 461.167,91.5 459.833,91.5 458.5,91.5C 458.5,89.5 458.5,87.5 458.5,85.5C 462.167,85.5 465.833,85.5 469.5,85.5C 469.884,92.5888 469.384,99.5888 468,106.5C 463.139,110.284 457.639,111.451 451.5,110C 449.714,109.215 448.214,108.049 447,106.5C 445.874,100.437 445.374,94.2707 445.5,88C 441.503,68.9858 448.503,62.3191 466.5,68C 467.701,68.9025 468.535,70.0692 469,71.5C 469.498,74.4816 469.665,77.4816 469.5,80.5 Z"/></g>
<g><path style="opacity:1" fill="#a8d4ed" d="M 502.5,66.5 C 497.5,66.5 492.5,66.5 487.5,66.5C 487.5,80.8333 487.5,95.1667 487.5,109.5C 492.833,109.5 498.167,109.5 503.5,109.5C 498.025,110.489 492.358,110.822 486.5,110.5C 486.5,95.5 486.5,80.5 486.5,65.5C 492.026,65.1786 497.36,65.5119 502.5,66.5 Z"/></g>
<g><path style="opacity:1" fill="#f6fafd" d="M 502.5,66.5 C 510.904,68.1151 513.737,73.1151 511,81.5C 510.028,83.3049 508.861,84.9716 507.5,86.5C 511.439,88.8783 513.105,92.3783 512.5,97C 513.47,104.178 510.47,108.344 503.5,109.5C 498.167,109.5 492.833,109.5 487.5,109.5C 487.5,95.1667 487.5,80.8333 487.5,66.5C 492.5,66.5 497.5,66.5 502.5,66.5 Z"/></g>
<g><path style="opacity:1" fill="#f4f9fc" d="M 543.5,106.5 C 543.5,107.5 543.5,108.5 543.5,109.5C 540.833,109.5 538.167,109.5 535.5,109.5C 536.906,104.082 534.906,101.748 529.5,102.5C 524.166,102.465 522.166,105.132 523.5,110.5C 520.833,110.5 518.167,110.5 515.5,110.5C 517.568,96.0912 520.068,81.7579 523,67.5C 524.87,66.2565 527.036,65.5899 529.5,65.5C 531.759,65.5323 533.925,65.8656 536,66.5C 538.82,79.7795 541.32,93.1128 543.5,106.5 Z"/></g>
<g><path style="opacity:1" fill="#f4f9fc" d="M 554.5,65.5 C 558.605,65.2338 562.605,65.7338 566.5,67C 569,68.1667 570.833,70 572,72.5C 572.931,83.5728 572.597,94.5728 571,105.5C 566.117,110.204 560.283,111.704 553.5,110C 550.572,108.74 548.739,106.573 548,103.5C 547.333,92.8333 547.333,82.1667 548,71.5C 549.494,68.6865 551.66,66.6865 554.5,65.5 Z"/></g>
<g><path style="opacity:1" fill="#abd4ed" d="M 360.5,85.5 C 359.51,79.3554 359.177,73.0221 359.5,66.5C 357.167,66.5 354.833,66.5 352.5,66.5C 352.5,80.8333 352.5,95.1667 352.5,109.5C 354.833,109.5 357.167,109.5 359.5,109.5C 359.177,103.31 359.51,97.31 360.5,91.5C 360.5,97.8333 360.5,104.167 360.5,110.5C 357.5,110.5 354.5,110.5 351.5,110.5C 351.5,95.5 351.5,80.5 351.5,65.5C 354.5,65.5 357.5,65.5 360.5,65.5C 360.5,72.1667 360.5,78.8333 360.5,85.5 Z"/></g>
<g><path style="opacity:1" fill="#78b8e1" d="M 369.5,66.5 C 372.287,65.5233 375.287,65.19 378.5,65.5C 378.829,80.676 378.496,95.676 377.5,110.5C 377.5,95.8333 377.5,81.1667 377.5,66.5C 374.833,66.5 372.167,66.5 369.5,66.5 Z"/></g>
<g><path style="opacity:1" fill="#cae2f2" d="M 424.5,66.5 C 421.167,66.5 417.833,66.5 414.5,66.5C 414.5,80.8333 414.5,95.1667 414.5,109.5C 416.5,109.5 418.5,109.5 420.5,109.5C 420.5,109.833 420.5,110.167 420.5,110.5C 418.167,110.5 415.833,110.5 413.5,110.5C 413.5,95.5 413.5,80.5 413.5,65.5C 417.371,65.185 421.038,65.5184 424.5,66.5 Z"/></g>
<g><path style="opacity:0.004" fill="#b3c5b5" d="M 5.5,71.5 C 4.83333,70.1667 4.83333,70.1667 5.5,71.5 Z"/></g>
<g><path style="opacity:0.004" fill="#8ca58f" d="M 4.5,74.5 C 3.47498,74.1034 3.30831,73.4368 4,72.5C 4.46434,73.0944 4.63101,73.7611 4.5,74.5 Z"/></g>
<g><path style="opacity:1" fill="#deebf7" d="M 331.5,72.5 C 332.495,84.6554 332.829,96.9887 332.5,109.5C 334.833,109.5 337.167,109.5 339.5,109.5C 337.052,110.473 334.385,110.806 331.5,110.5C 331.5,97.8333 331.5,85.1667 331.5,72.5 Z"/></g>
<g><path style="opacity:1" fill="#288ace" d="M 392.5,72.5 C 395.365,72.0548 397.865,72.7215 400,74.5C 400.667,83.5 400.667,92.5 400,101.5C 397.822,105.065 395.156,105.399 392,102.5C 391.193,92.4229 391.36,82.4229 392.5,72.5 Z"/></g>
<g><path style="opacity:1" fill="#1085cb" d="M 556.5,72.5 C 558.792,72.2436 560.959,72.5769 563,73.5C 563.667,83.5 563.667,93.5 563,103.5C 560.408,104.982 558.075,104.648 556,102.5C 555.193,92.4229 555.36,82.4229 556.5,72.5 Z"/></g>
<g><path style="opacity:1" fill="#e7f1f9" d="M 56.5,73.5 C 59.1369,75.491 61.8036,77.491 64.5,79.5C 65.6652,78.5089 66.8319,77.5089 68,76.5C 68.5,76.8333 69,77.1667 69.5,77.5C 67.8333,79.5 66.1667,81.5 64.5,83.5C 61.7587,81.0472 58.9254,78.7139 56,76.5C 55.5304,75.4232 55.6971,74.4232 56.5,73.5 Z"/></g>
<g><path style="opacity:1" fill="#1a87cc" d="M 266.5,103.5 C 264.833,103.5 263.167,103.5 261.5,103.5C 261.5,99.5 261.5,95.5 261.5,91.5C 263.099,91.7678 264.432,91.4345 265.5,90.5C 265.5,88.8333 265.5,87.1667 265.5,85.5C 263.833,85.5 262.167,85.5 260.5,85.5C 260.5,81.1667 260.5,76.8333 260.5,72.5C 263.249,72.2739 265.916,72.6072 268.5,73.5C 269.665,83.1495 269.832,92.8161 269,102.5C 268.329,103.252 267.496,103.586 266.5,103.5 Z"/></g>
<g><path style="opacity:1" fill="#1586cc" d="M 495.5,72.5 C 503.618,72.3821 505.618,75.8821 501.5,83C 499.527,83.4955 497.527,83.6621 495.5,83.5C 495.5,79.8333 495.5,76.1667 495.5,72.5 Z"/></g>
<g><path style="opacity:0.004" fill="#cad7cc" d="M 2.5,80.5 C 1.83333,79.1667 1.83333,79.1667 2.5,80.5 Z"/></g>
<g><path style="opacity:1" fill="#eef5fb" d="M 62.5,87.5 C 59.4281,87.1826 56.4281,87.5159 53.5,88.5C 53.6236,89.1067 53.9569,89.44 54.5,89.5C 56.6449,89.7377 58.3115,90.7377 59.5,92.5C 55.9287,93.2485 52.5953,92.4151 49.5,90C 48.6634,88.9887 48.33,87.8221 48.5,86.5C 51.5719,86.8174 54.5719,86.4841 57.5,85.5C 57.0431,84.7025 56.3764,84.3691 55.5,84.5C 51.9589,83.8571 51.1256,82.1904 53,79.5C 56.2649,81.8833 59.7649,83.8833 63.5,85.5C 63.1373,86.1835 62.8039,86.8501 62.5,87.5 Z"/></g>
<g><path style="opacity:1" fill="#90c5e5" d="M 461.5,74.5 C 462.461,76.2646 462.795,78.2646 462.5,80.5C 464.833,80.5 467.167,80.5 469.5,80.5C 467.052,81.4731 464.385,81.8064 461.5,81.5C 461.5,79.1667 461.5,76.8333 461.5,74.5 Z"/></g>
<g><path style="opacity:0.008" fill="#a0b5a2" d="M 1.5,84.5 C 1.16667,84.5 0.833333,84.5 0.5,84.5C 0.833333,80.5 1.16667,80.5 1.5,84.5 Z"/></g>
<g><path style="opacity:1" fill="#a9d0ea" d="M 422.5,81.5 C 421.833,91.1667 421.167,100.833 420.5,110.5C 420.5,110.167 420.5,109.833 420.5,109.5C 420.168,99.4778 420.501,89.4778 421.5,79.5C 422.298,79.9569 422.631,80.6236 422.5,81.5 Z"/></g>
<g><path style="opacity:1" fill="#3691d0" d="M 528.5,75.5 C 531.274,81.9892 532.94,88.9892 533.5,96.5C 530.833,96.5 528.167,96.5 525.5,96.5C 526.608,89.5162 527.608,82.5162 528.5,75.5 Z"/></g>
<g><path style="opacity:0.004" fill="#76947a" d="M -0.5,84.5 C -0.166667,84.5 0.166667,84.5 0.5,84.5C 0.737305,85.791 0.403972,86.791 -0.5,87.5C -0.5,86.5 -0.5,85.5 -0.5,84.5 Z"/></g>
<g><path style="opacity:1" fill="#8ec5e6" d="M 55.5,84.5 C 56.3764,84.3691 57.0431,84.7025 57.5,85.5C 54.5719,86.4841 51.5719,86.8174 48.5,86.5C 50.8333,85.8333 53.1667,85.1667 55.5,84.5 Z"/></g>
<g><path style="opacity:1" fill="#abd2eb" d="M 62.5,87.5 C 59.8333,88.1667 57.1667,88.8333 54.5,89.5C 53.9569,89.44 53.6236,89.1067 53.5,88.5C 56.4281,87.5159 59.4281,87.1826 62.5,87.5 Z"/></g>
<g><path style="opacity:1" fill="#328ecf" d="M 294.5,75.5 C 297.093,82.1382 298.427,89.1382 298.5,96.5C 296.167,96.5 293.833,96.5 291.5,96.5C 291.854,89.3983 292.854,82.3983 294.5,75.5 Z"/></g>
<g><path style="opacity:1" fill="#2188cd" d="M 495.5,90.5 C 501.486,88.8952 504.486,91.0619 504.5,97C 504.486,102.938 501.486,105.105 495.5,103.5C 495.5,99.1667 495.5,94.8333 495.5,90.5 Z"/></g>
<g><path style="opacity:1" fill="#68aedc" d="M 265.5,90.5 C 264.432,91.4345 263.099,91.7678 261.5,91.5C 261.5,95.5 261.5,99.5 261.5,103.5C 263.167,103.5 264.833,103.5 266.5,103.5C 264.735,104.461 262.735,104.795 260.5,104.5C 260.5,99.8333 260.5,95.1667 260.5,90.5C 262.167,90.5 263.833,90.5 265.5,90.5 Z"/></g>
<g><path style="opacity:1" fill="#97c9e8" d="M 458.5,91.5 C 459.833,91.5 461.167,91.5 462.5,91.5C 462.813,95.0419 462.479,98.3752 461.5,101.5C 461.5,98.5 461.5,95.5 461.5,92.5C 460.209,92.7373 459.209,92.404 458.5,91.5 Z"/></g>
<g><path style="opacity:1" fill="#ecf4fa" d="M 47.5,93.5 C 55.8895,93.35 58.2228,96.85 54.5,104C 44.9177,104.949 42.5844,101.449 47.5,93.5 Z"/></g>
<g><path style="opacity:1" fill="#2c8cce" d="M 47.5,96.5 C 51.5769,96.0171 53.9103,97.6837 54.5,101.5C 52.1432,101.663 49.8098,101.497 47.5,101C 46.2721,99.5098 46.2721,98.0098 47.5,96.5 Z"/></g>
<g><path style="opacity:1" fill="#aed6ee" d="M 281.5,108.5 C 283.607,109.468 285.941,109.802 288.5,109.5C 285.976,110.8 283.309,110.8 280.5,109.5C 280.624,108.893 280.957,108.56 281.5,108.5 Z"/></g>
<g><path style="opacity:1" fill="#b1d6ed" d="M 543.5,106.5 C 544.434,107.568 544.768,108.901 544.5,110.5C 541.287,110.81 538.287,110.477 535.5,109.5C 538.167,109.5 540.833,109.5 543.5,109.5C 543.5,108.5 543.5,107.5 543.5,106.5 Z"/></g>
<g><path style="opacity:1" fill="#65b1de" d="M 252.5,122.5 C 359.332,121.501 466.332,121.167 573.5,121.5C 573.768,123.099 573.434,124.432 572.5,125.5C 572.5,125.167 572.5,124.833 572.5,124.5C 466.505,122.502 360.172,121.835 253.5,122.5C 253.167,122.5 252.833,122.5 252.5,122.5 Z"/></g>
<g><path style="opacity:1" fill="#fdfefe" d="M 253.5,122.5 C 360.172,121.835 466.505,122.502 572.5,124.5C 465.828,125.165 359.495,124.498 253.5,122.5 Z"/></g>
<g><path style="opacity:1" fill="#a0d2ec" d="M 252.5,122.5 C 252.833,122.5 253.167,122.5 253.5,122.5C 359.495,124.498 465.828,125.165 572.5,124.5C 572.5,124.833 572.5,125.167 572.5,125.5C 465.833,125.5 359.167,125.5 252.5,125.5C 252.5,124.5 252.5,123.5 252.5,122.5 Z"/></g>
<g><path style="opacity:1" fill="#d6e9f5" d="M 285.5,132.5 C 288.187,133.664 290.52,135.497 292.5,138C 291.5,138.667 290.5,138.667 289.5,138C 287.653,134.876 285.987,134.876 284.5,138C 283.365,138.749 282.365,138.583 281.5,137.5C 282.857,135.814 284.19,134.148 285.5,132.5 Z"/></g>
<g><path style="opacity:1" fill="#cbe3f3" d="M 345.5,132.5 C 346.552,132.351 347.552,132.517 348.5,133C 349.305,134.972 350.639,136.472 352.5,137.5C 350.157,138.725 348.323,138.059 347,135.5C 345.677,138.059 343.843,138.725 341.5,137.5C 343.082,135.985 344.416,134.319 345.5,132.5 Z"/></g>
<g><path style="opacity:0.004" fill="#86a189" d="M -0.5,135.5 C -0.166667,135.5 0.166667,135.5 0.5,135.5C 0.5,136.5 0.5,137.5 0.5,138.5C 0.166667,138.5 -0.166667,138.5 -0.5,138.5C -0.5,137.5 -0.5,136.5 -0.5,135.5 Z"/></g>
<g><path style="opacity:1" fill="#ecf4fa" d="M 520.5,137.5 C 521.5,137.5 522.5,137.5 523.5,137.5C 524.227,141.224 522.894,143.891 519.5,145.5C 520.614,150.446 520.781,155.446 520,160.5C 517.27,167.053 512.437,169.22 505.5,167C 498.86,160.129 497.694,152.295 502,143.5C 506.972,138.539 512.306,138.206 518,142.5C 520.157,141.615 520.99,139.948 520.5,137.5 Z"/></g>
<g><path style="opacity:1" fill="#7cbae2" d="M 422.5,140.5 C 429.313,139.509 436.313,139.175 443.5,139.5C 443.5,140.833 443.5,142.167 443.5,143.5C 440.5,143.5 437.5,143.5 434.5,143.5C 437.028,142.834 439.694,142.168 442.5,141.5C 435.866,140.503 429.2,140.17 422.5,140.5 Z"/></g>
<g><path style="opacity:1" fill="#ebf4fa" d="M 473.5,140.5 C 474.5,140.5 475.5,140.5 476.5,140.5C 476.176,147.354 476.509,154.021 477.5,160.5C 477.511,162.017 478.177,163.184 479.5,164C 482.792,164.936 485.792,164.436 488.5,162.5C 489.465,155.224 489.799,147.891 489.5,140.5C 490.5,140.5 491.5,140.5 492.5,140.5C 492.238,141.978 492.571,143.311 493.5,144.5C 494.107,144.376 494.44,144.043 494.5,143.5C 496.213,142.365 496.88,140.698 496.5,138.5C 497.5,138.5 498.5,138.5 499.5,138.5C 500.119,143.206 498.119,145.873 493.5,146.5C 494.128,152.762 493.295,158.762 491,164.5C 487.319,167.36 483.152,168.193 478.5,167C 476.622,165.457 475.122,163.624 474,161.5C 473.5,154.508 473.334,147.508 473.5,140.5 Z"/></g>
<g><path style="opacity:1" fill="#f1f7fb" d="M 253.5,140.5 C 257.846,140.334 262.179,140.501 266.5,141C 270.292,143.053 271.458,146.219 270,150.5C 266.697,152.397 266.864,154.064 270.5,155.5C 272.147,159.453 271.48,162.953 268.5,166C 263.599,167.325 258.599,167.825 253.5,167.5C 253.5,158.5 253.5,149.5 253.5,140.5 Z"/></g>
<g><path style="opacity:1" fill="#e5f1f9" d="M 283.5,139.5 C 289.957,138.975 294.457,141.642 297,147.5C 298.01,153.064 297.343,158.398 295,163.5C 290.8,167.714 285.966,168.548 280.5,166C 272.919,155.949 273.919,147.116 283.5,139.5 Z"/></g>
<g><path style="opacity:1" fill="#e9f2f9" d="M 318.5,139.5 C 325.932,138.38 330.266,141.38 331.5,148.5C 330.325,148.719 329.325,148.386 328.5,147.5C 324.854,141.341 320.687,141.007 316,146.5C 313.522,152.848 314.355,158.681 318.5,164C 323.381,165.68 326.714,164.18 328.5,159.5C 329.325,158.614 330.325,158.281 331.5,158.5C 331.755,162.493 330.089,165.326 326.5,167C 319.563,169.22 314.73,167.053 312,160.5C 311.333,155.833 311.333,151.167 312,146.5C 313.694,143.642 315.861,141.309 318.5,139.5 Z"/></g>
<g><path style="opacity:1" fill="#ecf4fa" d="M 343.5,139.5 C 349.477,139.071 353.977,141.404 357,146.5C 358.22,152.872 357.387,158.872 354.5,164.5C 349.299,168.466 344.132,168.466 339,164.5C 336.606,158.724 335.939,152.724 337,146.5C 338.694,143.642 340.861,141.309 343.5,139.5 Z"/></g>
<g><path style="opacity:1" fill="#f5f9fc" d="M 366.5,140.5 C 370.487,146.463 374.487,152.463 378.5,158.5C 378.783,159.289 379.283,159.956 380,160.5C 380.5,153.842 380.666,147.175 380.5,140.5C 381.5,140.5 382.5,140.5 383.5,140.5C 383.5,149.5 383.5,158.5 383.5,167.5C 382.022,167.762 380.689,167.429 379.5,166.5C 375.53,160.031 371.363,153.698 367,147.5C 366.5,154.158 366.334,160.825 366.5,167.5C 365.5,167.5 364.5,167.5 363.5,167.5C 363.5,158.5 363.5,149.5 363.5,140.5C 364.5,140.5 365.5,140.5 366.5,140.5 Z"/></g>
<g><path style="opacity:1" fill="#f1f7fb" d="M 400.5,156.5 C 402.988,154.612 405.988,153.945 409.5,154.5C 409.5,157.833 409.5,161.167 409.5,164.5C 397.128,171.121 390.462,167.454 389.5,153.5C 389.521,142.298 394.855,138.131 405.5,141C 407.923,142.571 409.256,144.737 409.5,147.5C 406.705,145.12 403.371,143.453 399.5,142.5C 396.349,142.811 394.182,144.477 393,147.5C 391.653,153.598 392.82,159.098 396.5,164C 403.868,166.504 407.202,164.004 406.5,156.5C 404.5,156.5 402.5,156.5 400.5,156.5 Z"/></g>
<g><path style="opacity:1" fill="#f6fafc" d="M 422.5,140.5 C 429.2,140.17 435.866,140.503 442.5,141.5C 439.694,142.168 437.028,142.834 434.5,143.5C 434.5,151.167 434.5,158.833 434.5,166.5C 433.5,166.5 432.5,166.5 431.5,166.5C 431.825,158.648 431.492,150.982 430.5,143.5C 427.833,143.5 425.167,143.5 422.5,143.5C 422.5,142.5 422.5,141.5 422.5,140.5 Z"/></g>
<g><path style="opacity:1" fill="#f6fafc" d="M 464.5,167.5 C 464.5,163.167 464.5,158.833 464.5,154.5C 459.833,154.5 455.167,154.5 450.5,154.5C 450.5,158.833 450.5,163.167 450.5,167.5C 449.5,167.5 448.5,167.5 447.5,167.5C 447.5,158.5 447.5,149.5 447.5,140.5C 448.5,140.5 449.5,140.5 450.5,140.5C 450.5,144.167 450.5,147.833 450.5,151.5C 455.167,151.5 459.833,151.5 464.5,151.5C 464.5,147.833 464.5,144.167 464.5,140.5C 465.5,140.5 466.5,140.5 467.5,140.5C 467.5,149.5 467.5,158.5 467.5,167.5C 466.5,167.5 465.5,167.5 464.5,167.5 Z"/></g>
<g><path style="opacity:1" fill="#8ec4e5" d="M 473.5,140.5 C 474.568,139.566 475.901,139.232 477.5,139.5C 477.5,146.5 477.5,153.5 477.5,160.5C 476.509,154.021 476.176,147.354 476.5,140.5C 475.5,140.5 474.5,140.5 473.5,140.5 Z"/></g>
<g><path style="opacity:1" fill="#8dc2e5" d="M 489.5,140.5 C 490.568,139.566 491.901,139.232 493.5,139.5C 493.232,141.099 493.566,142.432 494.5,143.5C 494.44,144.043 494.107,144.376 493.5,144.5C 492.571,143.311 492.238,141.978 492.5,140.5C 491.5,140.5 490.5,140.5 489.5,140.5 Z"/></g>
<g><path style="opacity:1" fill="#f7fbfd" d="M 527.5,140.5 C 529.39,140.297 530.89,140.963 532,142.5C 535.511,148.195 539.011,153.861 542.5,159.5C 542.56,160.043 542.893,160.376 543.5,160.5C 544.167,153.833 544.833,147.167 545.5,140.5C 546.498,149.141 546.831,157.808 546.5,166.5C 545.5,166.5 544.5,166.5 543.5,166.5C 539.513,160.537 535.513,154.537 531.5,148.5C 531.44,147.957 531.107,147.624 530.5,147.5C 529.833,153.833 529.167,160.167 528.5,166.5C 527.502,157.859 527.169,149.192 527.5,140.5 Z"/></g>
<g><path style="opacity:1" fill="#f1f7fb" d="M 573.5,147.5 C 572.041,147.567 570.708,147.234 569.5,146.5C 567.644,142.832 564.644,141.666 560.5,143C 558.951,144.214 557.785,145.714 557,147.5C 555.549,153.639 556.716,159.139 560.5,164C 567.868,166.504 571.202,164.004 570.5,156.5C 568.5,156.5 566.5,156.5 564.5,156.5C 566.988,154.612 569.988,153.945 573.5,154.5C 573.5,157.833 573.5,161.167 573.5,164.5C 560.875,171.042 554.208,167.209 553.5,153C 553.748,142.076 559.081,138.076 569.5,141C 571.923,142.571 573.256,144.737 573.5,147.5 Z"/></g>
<g><path style="opacity:1" fill="#83bfe3" d="M 366.5,140.5 C 365.5,140.5 364.5,140.5 363.5,140.5C 363.5,149.5 363.5,158.5 363.5,167.5C 362.506,158.348 362.173,149.015 362.5,139.5C 364.099,139.232 365.432,139.566 366.5,140.5 Z"/></g>
<g><path style="opacity:1" fill="#60addc" d="M 380.5,140.5 C 380.666,147.175 380.5,153.842 380,160.5C 379.283,159.956 378.783,159.289 378.5,158.5C 379.167,152.5 379.833,146.5 380.5,140.5 Z"/></g>
<g><path style="opacity:1" fill="#b9dbef" d="M 543.5,166.5 C 544.5,166.5 545.5,166.5 546.5,166.5C 546.831,157.808 546.498,149.141 545.5,140.5C 544.833,147.167 544.167,153.833 543.5,160.5C 542.893,160.376 542.56,160.043 542.5,159.5C 543.491,153.021 543.824,146.354 543.5,139.5C 544.833,139.5 546.167,139.5 547.5,139.5C 547.5,148.833 547.5,158.167 547.5,167.5C 545.901,167.768 544.568,167.434 543.5,166.5 Z"/></g>
<g><path style="opacity:1" fill="#89c0e4" d="M 264.5,143.5 C 262.167,143.5 259.833,143.5 257.5,143.5C 257.5,146.167 257.5,148.833 257.5,151.5C 256.523,148.713 256.19,145.713 256.5,142.5C 259.385,142.194 262.052,142.527 264.5,143.5 Z"/></g>
<g><path style="opacity:1" fill="#1285cb" d="M 264.5,143.5 C 267.973,145.563 268.306,148.063 265.5,151C 262.854,151.497 260.187,151.664 257.5,151.5C 257.5,148.833 257.5,146.167 257.5,143.5C 259.833,143.5 262.167,143.5 264.5,143.5 Z"/></g>
<g><path style="opacity:1" fill="#1286cb" d="M 282.5,143.5 C 286.603,142.769 290.103,143.769 293,146.5C 293.667,151.167 293.667,155.833 293,160.5C 289.399,165.321 285.399,165.654 281,161.5C 278.594,155.143 279.094,149.143 282.5,143.5 Z"/></g>
<g><path style="opacity:1" fill="#1b87cc" d="M 342.5,143.5 C 352.973,143.047 356.806,148.047 354,158.5C 351.007,165.214 346.674,166.214 341,161.5C 338.597,155.112 339.097,149.112 342.5,143.5 Z"/></g>
<g><path style="opacity:1" fill="#9fcce9" d="M 430.5,143.5 C 431.492,150.982 431.825,158.648 431.5,166.5C 432.5,166.5 433.5,166.5 434.5,166.5C 433.432,167.434 432.099,167.768 430.5,167.5C 430.5,159.5 430.5,151.5 430.5,143.5 Z"/></g>
<g><path style="opacity:1" fill="#1987cc" d="M 506.5,143.5 C 511.487,142.349 514.987,144.016 517,148.5C 518.409,154.354 517.243,159.521 513.5,164C 509.219,165.458 506.053,164.292 504,160.5C 501.381,154.205 502.214,148.539 506.5,143.5 Z"/></g>
<g><path style="opacity:1" fill="#8dc4e6" d="M 569.5,146.5 C 570.708,147.234 572.041,147.567 573.5,147.5C 573.083,148.124 572.416,148.457 571.5,148.5C 570.287,148.253 569.62,147.586 569.5,146.5 Z"/></g>
<g><path style="opacity:0.004" fill="#809d84" d="M 4.5,149.5 C 3.83333,150.167 3.83333,150.167 4.5,149.5 Z"/></g>
<g><path style="opacity:1" fill="#b7daef" d="M 527.5,140.5 C 527.169,149.192 527.502,157.859 528.5,166.5C 529.167,160.167 529.833,153.833 530.5,147.5C 531.107,147.624 531.44,147.957 531.5,148.5C 530.51,154.645 530.177,160.978 530.5,167.5C 529.167,167.5 527.833,167.5 526.5,167.5C 526.173,158.318 526.507,149.318 527.5,140.5 Z"/></g>
<g><path style="opacity:0.004" fill="#b5c5b7" d="M 5.5,151.5 C 5.63101,152.239 5.46434,152.906 5,153.5C 4.30831,152.563 4.47498,151.897 5.5,151.5 Z"/></g>
<g><path style="opacity:1" fill="#63addc" d="M 265.5,155.5 C 262.833,155.5 260.167,155.5 257.5,155.5C 257.5,158.167 257.5,160.833 257.5,163.5C 260.167,163.5 262.833,163.5 265.5,163.5C 262.713,164.477 259.713,164.81 256.5,164.5C 256.5,161.167 256.5,157.833 256.5,154.5C 259.713,154.19 262.713,154.523 265.5,155.5 Z"/></g>
<g><path style="opacity:1" fill="#77bbe2" d="M 409.5,164.5 C 409.5,161.167 409.5,157.833 409.5,154.5C 405.988,153.945 402.988,154.612 400.5,156.5C 399.596,155.791 399.263,154.791 399.5,153.5C 403.167,153.5 406.833,153.5 410.5,153.5C 410.815,157.371 410.482,161.038 409.5,164.5 Z"/></g>
<g><path style="opacity:1" fill="#75bae2" d="M 573.5,164.5 C 573.5,161.167 573.5,157.833 573.5,154.5C 569.988,153.945 566.988,154.612 564.5,156.5C 563.596,155.791 563.263,154.791 563.5,153.5C 567.167,153.5 570.833,153.5 574.5,153.5C 574.815,157.371 574.482,161.038 573.5,164.5 Z"/></g>
<g><path style="opacity:1" fill="#0283ca" d="M 265.5,155.5 C 266.993,156.312 267.66,157.645 267.5,159.5C 267.66,161.355 266.993,162.688 265.5,163.5C 262.833,163.5 260.167,163.5 257.5,163.5C 257.5,160.833 257.5,158.167 257.5,155.5C 260.167,155.5 262.833,155.5 265.5,155.5 Z"/></g>
<g><path style="opacity:1" fill="#55a7d9" d="M 464.5,167.5 C 463.517,163.702 463.183,159.702 463.5,155.5C 459.5,155.5 455.5,155.5 451.5,155.5C 451.817,159.702 451.483,163.702 450.5,167.5C 450.5,163.167 450.5,158.833 450.5,154.5C 455.167,154.5 459.833,154.5 464.5,154.5C 464.5,158.833 464.5,163.167 464.5,167.5 Z"/></g>
<g><path style="opacity:0.004" fill="#8aa48e" d="M 8.5,158.5 C 8.63101,159.239 8.46434,159.906 8,160.5C 7.30831,159.563 7.47498,158.897 8.5,158.5 Z"/></g>
<g><path style="opacity:0.004" fill="#bacabc" d="M 9.5,161.5 C 8.83333,162.167 8.83333,162.167 9.5,161.5 Z"/></g>
<g><path style="opacity:0.004" fill="#aec1b1" d="M 10.5,163.5 C 9.83333,164.167 9.83333,164.167 10.5,163.5 Z"/></g>
<g><path style="opacity:0.004" fill="#79987d" d="M 11.5,166.5 C 10.8333,165.167 10.8333,165.167 11.5,166.5 Z"/></g>
<g><path style="opacity:0.004" fill="#aec1b0" d="M 11.5,166.5 C 11.8333,166.5 12.1667,166.5 12.5,166.5C 12.3147,167.17 11.9813,167.17 11.5,166.5 Z"/></g>
<g><path style="opacity:0.004" fill="#307775" d="M 598.5,169.5 C 598.833,169.5 599.167,169.5 599.5,169.5C 599.5,169.833 599.5,170.167 599.5,170.5C 599.167,170.167 598.833,169.833 598.5,169.5 Z"/></g>
<g><path style="opacity:1" fill="#e1eef8" d="M 285.5,169.5 C 287.912,169.694 288.912,171.027 288.5,173.5C 287.167,173.5 285.833,173.5 284.5,173.5C 284.433,172.041 284.766,170.708 285.5,169.5 Z"/></g>
<g><path style="opacity:0.008" fill="#0a81ba" d="M 597.5,170.5 C 597.833,170.5 598.167,170.5 598.5,170.5C 598.315,171.17 597.981,171.17 597.5,170.5 Z"/></g>
<g><path style="opacity:0.004" fill="#c4d2c5" d="M 15.5,171.5 C 14.8333,172.167 14.8333,172.167 15.5,171.5 Z"/></g>
<g><path style="opacity:0.004" fill="#9fb5a2" d="M 16.5,173.5 C 15.8333,174.167 15.8333,174.167 16.5,173.5 Z"/></g>
<g><path style="opacity:0.004" fill="#137fa9" d="M 595.5,173.5 C 596.833,174.167 596.833,174.167 595.5,173.5 Z"/></g>
<g><path style="opacity:0.004" fill="#167ea5" d="M 594.5,174.5 C 594.833,174.5 595.167,174.5 595.5,174.5C 595.315,175.17 594.981,175.17 594.5,174.5 Z"/></g>
<g><path style="opacity:0.004" fill="#157ea5" d="M 593.5,175.5 C 593.833,175.5 594.167,175.5 594.5,175.5C 594.315,176.17 593.981,176.17 593.5,175.5 Z"/></g>
<g><path style="opacity:0.008" fill="#a7bcaa" d="M 19.5,177.5 C 18.8333,178.167 18.8333,178.167 19.5,177.5 Z"/></g>
<g><path style="opacity:0.004" fill="#0981ba" d="M 589.5,178.5 C 590.833,179.167 590.833,179.167 589.5,178.5 Z"/></g>
<g><path style="opacity:0.004" fill="#34756e" d="M 588.5,179.5 C 588.833,179.5 589.167,179.5 589.5,179.5C 589.315,180.17 588.981,180.17 588.5,179.5 Z"/></g>
<g><path style="opacity:0.006" fill="#1e7b96" d="M 582.5,181.5 C 583.239,181.369 583.906,181.536 584.5,182C 583.563,182.692 582.897,182.525 582.5,181.5 Z"/></g>
<g><path style="opacity:0.004" fill="#b0c2b2" d="M 199.5,184.5 C 200.833,185.167 200.833,185.167 199.5,184.5 Z"/></g>
<g><path style="opacity:0.004" fill="#acbfae" d="M 198.5,185.5 C 198.833,185.5 199.167,185.5 199.5,185.5C 199.315,186.17 198.981,186.17 198.5,185.5 Z"/></g>
<g><path style="opacity:0.004" fill="#b0c3b2" d="M 197.5,186.5 C 197.833,186.5 198.167,186.5 198.5,186.5C 198.315,187.17 197.981,187.17 197.5,186.5 Z"/></g>
<g><path style="opacity:0.004" fill="#a3b9a6" d="M 27.5,187.5 C 26.8333,188.167 26.8333,188.167 27.5,187.5 Z"/></g>
<g><path style="opacity:0.004" fill="#a3b9a6" d="M 196.5,187.5 C 196.833,187.5 197.167,187.5 197.5,187.5C 197.315,188.17 196.981,188.17 196.5,187.5 Z"/></g>
<g><path style="opacity:0.004" fill="#9eb5a1" d="M 33.5,193.5 C 32.8333,194.167 32.8333,194.167 33.5,193.5 Z"/></g>
<g><path style="opacity:0.004" fill="#a3b8a5" d="M 188.5,195.5 C 189.833,196.167 189.833,196.167 188.5,195.5 Z"/></g>
<g><path style="opacity:0.004" fill="#96ae99" d="M 187.5,196.5 C 187.833,196.5 188.167,196.5 188.5,196.5C 188.315,197.17 187.981,197.17 187.5,196.5 Z"/></g>
<g><path style="opacity:0.004" fill="#aec1b0" d="M 37.5,197.5 C 36.8333,198.167 36.8333,198.167 37.5,197.5 Z"/></g>
<g><path style="opacity:0.004" fill="#adc0af" d="M 186.5,197.5 C 186.833,197.5 187.167,197.5 187.5,197.5C 187.315,198.17 186.981,198.17 186.5,197.5 Z"/></g>
<g><path style="opacity:0.004" fill="#aabeac" d="M 185.5,198.5 C 185.833,198.5 186.167,198.5 186.5,198.5C 186.315,199.17 185.981,199.17 185.5,198.5 Z"/></g>
<g><path style="opacity:0.004" fill="#cad7cc" d="M 42.5,201.5 C 41.8333,202.167 41.8333,202.167 42.5,201.5 Z"/></g>
<g><path style="opacity:0.004" fill="#adc0b0" d="M 174.5,206.5 C 175.833,207.167 175.833,207.167 174.5,206.5 Z"/></g>
<g><path style="opacity:0.004" fill="#7b997e" d="M 50.5,207.5 C 49.8333,208.167 49.8333,208.167 50.5,207.5 Z"/></g>
<g><path style="opacity:0.004" fill="#7b997f" d="M 173.5,207.5 C 173.833,207.5 174.167,207.5 174.5,207.5C 174.315,208.17 173.981,208.17 173.5,207.5 Z"/></g>
<g><path style="opacity:0.004" fill="#6c8d70" d="M 54.5,210.5 C 55.8333,211.167 55.8333,211.167 54.5,210.5 Z"/></g>
<g><path style="opacity:0.004" fill="#9bb29e" d="M 168.5,210.5 C 169.833,211.167 169.833,211.167 168.5,210.5 Z"/></g>
<g><path style="opacity:0.004" fill="#809d83" d="M 57.5,211.5 C 56.8333,212.167 56.8333,212.167 57.5,211.5 Z"/></g>
<g><path style="opacity:0.004" fill="#809d83" d="M 166.5,211.5 C 167.833,212.167 167.833,212.167 166.5,211.5 Z"/></g>
<g><path style="opacity:0.004" fill="#9db4a0" d="M 59.5,212.5 C 58.8333,213.167 58.8333,213.167 59.5,212.5 Z"/></g>
<g><path style="opacity:0.004" fill="#aec1b0" d="M 61.5,213.5 C 60.8333,214.167 60.8333,214.167 61.5,213.5 Z"/></g>
<g><path style="opacity:0.004" fill="#aec1b0" d="M 162.5,213.5 C 163.833,214.167 163.833,214.167 162.5,213.5 Z"/></g>
<g><path style="opacity:0.004" fill="#89a48c" d="M 63.5,214.5 C 62.8333,215.167 62.8333,215.167 63.5,214.5 Z"/></g>
<g><path style="opacity:0.004" fill="#89a48c" d="M 160.5,214.5 C 161.833,215.167 161.833,215.167 160.5,214.5 Z"/></g>
<g><path style="opacity:0.004" fill="#86a28a" d="M 158.5,215.5 C 159.833,216.167 159.833,216.167 158.5,215.5 Z"/></g>
<g><path style="opacity:0.004" fill="#a1b7a4" d="M 70.5,217.5 C 69.8333,218.167 69.8333,218.167 70.5,217.5 Z"/></g>
<g><path style="opacity:0.004" fill="#a1b7a4" d="M 153.5,217.5 C 154.833,218.167 154.833,218.167 153.5,217.5 Z"/></g>
<g><path style="opacity:0.004" fill="#5c8161" d="M 71.5,218.5 C 72.8333,219.167 72.8333,219.167 71.5,218.5 Z"/></g>
<g><path style="opacity:0.004" fill="#5c8161" d="M 151.5,218.5 C 152.833,219.167 152.833,219.167 151.5,218.5 Z"/></g>
<g><path style="opacity:0.004" fill="#c8d5c9" d="M 75.5,219.5 C 74.8333,220.167 74.8333,220.167 75.5,219.5 Z"/></g>
<g><path style="opacity:0.004" fill="#c8d5c9" d="M 148.5,219.5 C 149.833,220.167 149.833,220.167 148.5,219.5 Z"/></g>
<g><path style="opacity:0.004" fill="#b4c4b6" d="M 79.5,220.5 C 79.1034,221.525 78.4368,221.692 77.5,221C 78.0944,220.536 78.7611,220.369 79.5,220.5 Z"/></g>
<g><path style="opacity:0.004" fill="#b5c5b7" d="M 144.5,220.5 C 145.239,220.369 145.906,220.536 146.5,221C 145.563,221.692 144.897,221.525 144.5,220.5 Z"/></g>
<g><path style="opacity:0.004" fill="#7e9a82" d="M 82.5,221.5 C 82.1034,222.525 81.4368,222.692 80.5,222C 81.0944,221.536 81.7611,221.369 82.5,221.5 Z"/></g>
<g><path style="opacity:0.004" fill="#8ea791" d="M 141.5,221.5 C 142.239,221.369 142.906,221.536 143.5,222C 142.563,222.692 141.897,222.525 141.5,221.5 Z"/></g>
<g><path style="opacity:0.005" fill="#a0b5a2" d="M 98.5,224.5 C 97.3991,225.598 96.0657,225.765 94.5,225C 95.7932,224.51 97.1266,224.343 98.5,224.5 Z"/></g>
<g><path style="opacity:0.005" fill="#9fb5a2" d="M 125.5,224.5 C 126.873,224.343 128.207,224.51 129.5,225C 127.934,225.765 126.601,225.598 125.5,224.5 Z"/></g>
<g><path style="opacity:0.004" fill="#78967c" d="M 99.5,226.5 C 106.5,225.167 113.5,225.167 120.5,226.5C 113.5,226.5 106.5,226.5 99.5,226.5 Z"/></g>
<g><path style="opacity:0.004" fill="#77967b" d="M 121.5,226.5 C 122.167,225.167 122.833,225.167 123.5,226.5C 122.833,226.5 122.167,226.5 121.5,226.5 Z"/></g>
</svg>
