<svg xmlns="http://www.w3.org/2000/svg" width="40" height="40" viewBox="0 0 40 40">
  <g transform="translate(-0.737)">
    <path  d="M156,131.629a16.365,16.365,0,0,0,1.62-1.98,3.191,3.191,0,0,0,.521-1.752,2.91,2.91,0,0,0-.938-2.254,3.607,3.607,0,0,0-2.51-.843,3.515,3.515,0,0,0-2.586.976,3.153,3.153,0,0,0-.928,2.4v.038l.076.237h2.3v-.237a1.712,1.712,0,0,1,.3-1.07.977.977,0,0,1,.834-.36.963.963,0,0,1,.758.3,1.279,1.279,0,0,1,.275.852,1.911,1.911,0,0,1-.256.881,7.289,7.289,0,0,1-.928,1.269l-3.2,3.429v1.6h7.094v-1.97h-3.817Z" transform="translate(-136.126 -112.979)" fill="#c73030"/>
    <path d="M241.96,126.3h-2.33l-4.13,6.6.1,1.459h3.94v2.1h2.415v-2.1h1.1v-1.97h-1.1V126.3Zm-3.978,6.1,1.563-2.482V132.4Z" transform="translate(-212.419 -114.337)" fill="#c73030"/>
    <g transform="translate(0.737)">
      <path d="M86.173,0A17.855,17.855,0,0,0,70.8,8.79a10.1,10.1,0,0,1,2.823,1.743A14.527,14.527,0,1,1,93.552,30.358a10.9,10.9,0,0,1,1.7,2.842A17.845,17.845,0,0,0,86.173,0Z" transform="translate(-64.009)" fill="#c73030"/>
      <path d="M29.992,136.281a7.323,7.323,0,0,0-1.894-2.8h0c-.076-.057-.142-.123-.227-.189-1.677-1.354-2.993-1.98-4.12-1.98-1.373,0-2.273.919-3.23,1.885l-.313.313a.68.68,0,0,1-.521.189h0c-.805,0-2.52-.767-6.147-4.395a27.634,27.634,0,0,1-3.571-4.168c-.464-.71-1.156-1.98-.635-2.51l.313-.313c1.743-1.714,3.249-3.192-.095-7.35-.1-.133-.208-.256-.322-.379a.009.009,0,0,1,.009-.009,6.868,6.868,0,0,0-2.861-1.752c-.1-.009-.208-.019-.322-.019-1.591,0-2.813,1.279-3.883,2.415-.189.2-.36.379-.54.559-1.2,1.212-1.193,3.855.019,7.085a32.318,32.318,0,0,0,7.454,10.883c6.176,6.176,12.048,8.373,15.193,8.373h0a3.8,3.8,0,0,0,2.766-.909c.17-.17.36-.35.559-.54,1.165-1.108,2.482-2.359,2.406-4.007A2.567,2.567,0,0,0,29.992,136.281Z" transform="translate(-0.737 -102.116)" fill="#c73030"/>
    </g>
  </g>
</svg>