<svg xmlns="http://www.w3.org/2000/svg" width="16.024" height="16.023" viewBox="0 0 16.024 16.023">
  <path d="M20.7,3.1a1.015,1.015,0,0,0,1.018-1.016V1.018a1.017,1.017,0,1,0-2.035,0V2.081A1.015,1.015,0,0,0,20.7,3.1Z" transform="translate(-8.64 0)" fill="#707070"/>
  <path d="M16.214,3.471h-2.27v.571a1.716,1.716,0,0,1-3.432,0V3.471H5.932v.571a1.717,1.717,0,0,1-3.434,0V3.471L.208,3.443V17.732h14.88l1.144,0ZM15.087,16.594H1.353V7.466H15.088v9.128Z" transform="translate(-0.208 -1.708)" fill="#707070"/>
  <path d="M6.353,3.1A1.015,1.015,0,0,0,7.371,2.081V1.018a1.017,1.017,0,1,0-2.035,0V2.081A1.014,1.014,0,0,0,6.353,3.1Z" transform="translate(-2.428)" fill="#707070"/>
  <rect width="1.628" height="1.437" transform="translate(5.798 7.148)" fill="#707070"/>
  <rect width="1.629" height="1.437" transform="translate(8.75 7.148)" fill="#707070"/>
  <rect width="1.628" height="1.437" transform="translate(11.488 7.148)" fill="#707070"/>
  <rect width="1.628" height="1.436" transform="translate(5.798 9.778)" fill="#707070"/>
  <rect width="1.629" height="1.436" transform="translate(8.75 9.778)" fill="#707070"/>
  <rect width="1.628" height="1.436" transform="translate(11.488 9.778)" fill="#707070"/>
  <rect width="1.628" height="1.436" transform="translate(5.798 12.657)" fill="#707070"/>
  <rect width="1.627" height="1.436" transform="translate(2.898 9.778)" fill="#707070"/>
  <rect width="1.627" height="1.436" transform="translate(2.898 12.657)" fill="#707070"/>
  <rect width="1.629" height="1.436" transform="translate(8.75 12.657)" fill="#707070"/>
  <rect width="1.628" height="1.436" transform="translate(11.488 12.657)" fill="#707070"/>
</svg>