<svg xmlns="http://www.w3.org/2000/svg" width="28.493" height="28.516" viewBox="0 0 28.493 28.516">
    <g id="Group_4467" data-name="Group 4467" transform="translate(33.977 20.746) rotate(135)">
        <rect width="1.786" height="2.105" transform="translate(8.458 8.993)" fill="#fff"/>
        <path d="M9.356,0a9.356,9.356,0,1,0,9.356,9.356A9.366,9.366,0,0,0,9.356,0Zm0,16.967a7.613,7.613,0,1,1,7.612-7.612,7.621,7.621,0,0,1-7.612,7.612Z" transform="translate(0 10.628)" fill="#fff"/>
        <path d="M0,7.973V1.616a1.616,1.616,0,1,1,3.232,0V7.973Z" transform="translate(7.756 0)" fill="#fff"/>
        <path d="M2.786,1.042H.468A.468.468,0,0,1,0,.574V0H3.253V.574a.458.458,0,0,1-.468.468Z" transform="translate(7.756 7.951)" fill="#fff"/>
    </g>
</svg>